# xmcd CD database file
# Copyright (C) 1993-1998 Ti Kan
#
# Track frame offsets:
#  150
#  25325
#  51682
#  72615
#  82212
#  103615
#  119682
#  137182
#  173042
#  188242
#  208492
#  228675
#  252622
#  262145
#  277940
#
# Disc length: 4064 seconds
#
# Revision: 1
# Processed by: cddbd v1.4b41PL1 Copyright (c) Steve Scherf et al.
# Submitted via: CDWizzard Release:4.35
#
DISCID=000fde0f
DTITLE=Sandra Crouch - Completely Live
DYEAR=1900
DGENRE=
TTITLE0=Magnify The Lord With Me
TTITLE1=There Is Power In The Blood
TTITLE2=He's Worthy
TTITLE3=He's Worthy (Reprise)
TTITLE4=My Soul Loves Only You
TTITLE5=No Greater Love
TTITLE6=We Need To Hear From You
TTITLE7=Glad I Heard Your Voice
TTITLE8=Glorify The Lord
TTITLE9=Nothing But The Blood
TTITLE10=God Has A Plan
TTITLE11=Completely Yes
TTITLE12=Tell Him Yes
TTITLE13=Souls For The Kingdom
TTITLE14=We're Waiting
EXTD=
EXTT0=
EXTT1=
EXTT2=
EXTT3=
EXTT4=
EXTT5=
EXTT6=
EXTT7=
EXTT8=
EXTT9=
EXTT10=
EXTT11=
EXTT12=
EXTT13=
EXTT14=
PLAYORDER=
